<svg width="993" height="280" viewBox="0 0 993 280" fill="none" xmlns="http://www.w3.org/2000/svg">
<path d="M954.51 175.589H993V232.408H954.51V273.464H882.295V232.408H689.477V175.589L882.295 2.19882H954.51V175.589ZM882.295 68.1823L768.657 175.589H882.295V68.1823Z" fill="#FFA000"/>
<path d="M498.007 0.00385858C611.156 -0.484902 667.731 45.4592 667.731 137.836C667.731 173.76 656.245 206.386 633.273 235.712C610.301 265.038 565.212 279.701 498.007 279.701C450.597 279.701 413.939 271.758 388.035 255.873C362.13 239.988 344.901 221.537 336.348 200.52C328.038 179.259 324.251 158.364 324.984 137.836C324.984 102.645 336.836 70.875 360.541 42.5266C384.247 14.1781 430.068 0.00385858 498.007 0.00385858ZM498.374 223.615C522.323 223.615 541.751 219.582 556.659 211.518C571.566 203.209 582.197 192.578 588.551 179.626C594.905 166.429 597.837 152.255 597.349 137.103C597.837 122.684 594.905 109.243 588.551 96.7796C582.197 84.3161 571.566 74.2964 556.659 66.7205C541.751 58.9002 522.323 54.9901 498.374 54.9901C474.424 54.9901 454.996 58.9002 440.088 66.7205C425.425 74.2964 414.917 84.3161 408.563 96.7796C402.453 109.243 399.643 122.684 400.132 137.103C399.643 152.255 402.453 166.429 408.563 179.626C414.917 192.578 425.425 203.209 440.088 211.518C454.996 219.582 474.424 223.615 498.374 223.615Z" fill="#FFA000"/>
<path d="M265.034 175.589H303.524V232.408H265.034V273.464H192.818V232.408H0V175.589L192.818 2.19882H265.034V175.589ZM192.818 68.1823L79.1801 175.589H192.818V68.1823Z" fill="#FFA000"/>
</svg>
